# xmcd
#
# Track frame offsets:
#	150
#	20059
#	33530
#	52909
#	68318
#	92569
#	109141
#	126544
#	147515
#	168277
#
# Disc length: 2535 seconds
#
# Revision: 1
# Processed by: cddbd v1.4PL0 Copyright (c) Steve Scherf et al.
# Submitted via: EasyCDDAExtractor 5.1.0
#
DISCID=8609e50a
DTITLE=Joe Pat Hennen - Brand New Day
DYEAR=2000
DGENRE=Country
TTITLE0=Brand New Day
TTITLE1=Mean Motor Scooter
TTITLE2=Bible, Bottle, and a Gun
TTITLE3=Better Than Ice Cream
TTITLE4=Metamorphosis
TTITLE5=It Wasn't My Fault
TTITLE6=Leta's
TTITLE7=Men of Steel
TTITLE8=A Night To Spend
TTITLE9=Fast Train Leavin'
EXTD=
EXTT0=
EXTT1=
EXTT2=
EXTT3=
EXTT4=
EXTT5=
EXTT6=
EXTT7=
EXTT8=
EXTT9=
PLAYORDER=
